<svg xmlns="http://www.w3.org/2000/svg" viewBox="0, 0, 400, 400">
   <path d="M195.200 4.323 C 76.483 7.902,-11.205 112.888,6.621 230.100 C 21.927 330.744,113.575 403.208,215.305 395.102 C 329.033 386.040,410.569 282.926,393.379 169.900 C 378.695 73.346,292.567 1.387,195.200 4.323 M212.100 8.601 C 347.616 18.075,430.960 159.234,373.403 281.800 C 327.156 380.281,206.878 420.519,110.740 369.672 C -3.564 309.216,-26.820 155.784,64.482 64.482 C 99.177 29.786,142.469 10.941,193.500 8.319 C 196.024 8.190,209.033 8.387,212.100 8.601 M192.300 60.730 C 191.860 60.765,190.240 60.890,188.700 61.008 C 90.733 68.537,31.182 174.276,75.278 262.400 C 117.801 347.379,231.419 365.800,298.609 298.609 C 369.279 227.940,344.618 107.794,251.788 70.492 C 233.602 63.185,210.112 59.330,192.300 60.730 M210.550 64.914 C 292.602 71.415,350.072 149.023,332.279 229.300 C 315.818 303.568,241.128 349.864,167.400 331.498 C 94.773 313.406,50.453 239.867,68.502 167.400 C 84.515 103.107,144.685 59.695,210.550 64.914 M197.700 80.272 C 194.785 81.242,107.562 125.247,106.557 126.255 C 102.038 130.786,103.706 138.394,109.755 140.838 L 110.900 141.300 199.598 141.351 C 292.345 141.405,289.522 141.431,291.565 140.496 C 297.369 137.839,298.410 129.530,293.426 125.651 C 292.875 125.223,273.210 115.282,247.634 102.503 L 202.808 80.107 200.654 80.056 C 199.265 80.023,198.216 80.100,197.700 80.272 M119.376 148.076 C 113.835 150.060,113.410 157.809,118.700 160.409 L 119.700 160.900 200.300 160.900 L 280.900 160.900 282.032 160.344 C 286.865 157.971,286.905 150.992,282.100 148.433 L 281.100 147.900 200.600 147.858 C 135.120 147.824,119.965 147.865,119.376 148.076 M136.841 169.967 C 135.605 170.408,134.560 171.199,133.652 172.382 C 132.332 174.101,132.388 172.896,132.447 198.512 L 132.500 221.700 133.023 222.800 C 135.442 227.893,142.759 227.869,145.118 222.760 L 145.700 221.500 145.700 198.096 L 145.700 174.692 145.042 173.354 C 143.544 170.312,139.990 168.844,136.841 169.967 M167.665 169.876 C 165.590 170.554,164.010 172.146,163.392 174.183 C 163.000 175.472,162.993 175.992,163.046 198.600 L 163.100 221.700 163.532 222.635 C 165.590 227.088,171.438 227.986,174.706 224.352 C 176.414 222.452,176.300 224.329,176.300 198.000 L 176.300 174.700 175.773 173.576 C 174.323 170.484,170.768 168.862,167.665 169.876 M198.216 169.917 C 196.272 170.624,195.120 171.684,194.218 173.600 L 193.700 174.700 193.700 198.000 C 193.700 224.329,193.586 222.452,195.294 224.352 C 198.562 227.986,204.410 227.088,206.468 222.635 L 206.900 221.700 206.954 198.600 C 207.007 175.935,207.001 175.475,206.605 174.173 C 205.573 170.774,201.517 168.716,198.216 169.917 M228.801 169.922 C 226.908 170.609,225.637 171.799,224.756 173.711 L 224.300 174.700 224.300 198.104 L 224.300 221.508 224.957 222.844 C 227.447 227.900,234.567 227.874,236.977 222.800 L 237.500 221.700 237.500 198.100 L 237.500 174.500 236.946 173.372 C 235.500 170.427,231.765 168.845,228.801 169.922 M259.657 169.878 C 258.284 170.327,257.056 171.151,256.316 172.119 C 254.909 173.962,254.988 172.331,255.047 198.511 L 255.100 222.100 255.693 223.171 C 258.293 227.866,265.021 227.744,267.543 222.957 L 268.100 221.900 268.100 198.200 L 268.100 174.500 267.628 173.457 C 266.342 170.611,262.581 168.923,259.657 169.878 M119.460 235.572 C 113.592 237.600,113.453 246.112,119.256 248.136 C 120.860 248.695,279.985 248.706,281.385 248.147 C 287.322 245.775,287.027 237.308,280.944 235.502 C 279.230 234.993,120.937 235.062,119.460 235.572 M110.000 255.375 C 102.265 257.861,101.990 268.873,109.584 272.035 L 110.700 272.500 199.791 272.551 C 298.264 272.608,290.083 272.714,292.372 271.343 C 298.701 267.549,297.716 257.767,290.769 255.421 L 289.522 255.000 200.311 255.011 C 115.580 255.021,111.045 255.039,110.000 255.375 "/>
</svg>